<svg width="32" height="32" viewBox="0 0 32 32" fill="none" xmlns="http://www.w3.org/2000/svg">
<path d="M27.5005 3.5H4.50049C3.94736 3.5 3.50049 3.94687 3.50049 4.5V27.5C3.50049 28.0531 3.94736 28.5 4.50049 28.5H27.5005C28.0536 28.5 28.5005 28.0531 28.5005 27.5V4.5C28.5005 3.94687 28.0536 3.5 27.5005 3.5ZM24.613 10.7969H22.6161C21.0505 10.7969 20.7474 11.5406 20.7474 12.6344V15.0437H24.4849L23.9974 18.8156H20.7474V28.5H16.8505V18.8188H13.5911V15.0437H16.8505V12.2625C16.8505 9.03437 18.8224 7.275 21.7036 7.275C23.0849 7.275 24.2692 7.37813 24.6161 7.425V10.7969H24.613Z" fill="white" fill-opacity="0.75"/>
</svg>
