<svg width="32" height="32" viewBox="0 0 32 32" fill="none" xmlns="http://www.w3.org/2000/svg">
<path d="M15.9995 8.66981C11.946 8.66981 8.67454 11.9412 8.67454 15.9948C8.67454 20.0484 11.946 23.3198 15.9995 23.3198C20.0531 23.3198 23.3245 20.0484 23.3245 15.9948C23.3245 11.9412 20.0531 8.66981 15.9995 8.66981ZM15.9995 20.7555C13.3781 20.7555 11.2388 18.6162 11.2388 15.9948C11.2388 13.3734 13.3781 11.2341 15.9995 11.2341C18.621 11.2341 20.7603 13.3734 20.7603 15.9948C20.7603 18.6162 18.621 20.7555 15.9995 20.7555ZM23.6245 6.66267C22.6781 6.66267 21.9138 7.42696 21.9138 8.37338C21.9138 9.31981 22.6781 10.0841 23.6245 10.0841C24.571 10.0841 25.3353 9.32338 25.3353 8.37338C25.3355 8.14865 25.2915 7.92607 25.2056 7.71839C25.1197 7.51071 24.9937 7.32201 24.8348 7.1631C24.6759 7.00419 24.4872 6.87819 24.2795 6.79232C24.0719 6.70644 23.8493 6.66239 23.6245 6.66267ZM30.2781 15.9948C30.2781 14.0234 30.296 12.0698 30.1853 10.102C30.0745 7.81624 29.5531 5.78767 27.8817 4.11624C26.2067 2.44124 24.1817 1.92338 21.896 1.81267C19.9245 1.70196 17.971 1.71981 16.0031 1.71981C14.0317 1.71981 12.0781 1.70196 10.1103 1.81267C7.82454 1.92338 5.79597 2.44481 4.12454 4.11624C2.44954 5.79124 1.93168 7.81624 1.82097 10.102C1.71026 12.0734 1.72811 14.027 1.72811 15.9948C1.72811 17.9627 1.71026 19.9198 1.82097 21.8877C1.93168 24.1734 2.45311 26.202 4.12454 27.8734C5.79954 29.5484 7.82454 30.0662 10.1103 30.177C12.0817 30.2877 14.0353 30.2698 16.0031 30.2698C17.9745 30.2698 19.9281 30.2877 21.896 30.177C24.1817 30.0662 26.2103 29.5448 27.8817 27.8734C29.5567 26.1984 30.0745 24.1734 30.1853 21.8877C30.2995 19.9198 30.2781 17.9662 30.2781 15.9948ZM27.1353 24.4162C26.8745 25.0662 26.5603 25.552 26.0567 26.052C25.5531 26.5555 25.071 26.8698 24.421 27.1305C22.5424 27.877 18.0817 27.7091 15.9995 27.7091C13.9174 27.7091 9.45311 27.877 7.57454 27.1341C6.92454 26.8734 6.43883 26.5591 5.93883 26.0555C5.43526 25.552 5.12097 25.0698 4.86026 24.4198C4.1174 22.5377 4.28526 18.077 4.28526 15.9948C4.28526 13.9127 4.1174 9.44838 4.86026 7.56981C5.12097 6.91981 5.43526 6.4341 5.93883 5.9341C6.4424 5.4341 6.92454 5.11624 7.57454 4.85553C9.45311 4.11267 13.9174 4.28053 15.9995 4.28053C18.0817 4.28053 22.546 4.11267 24.4245 4.85553C25.0745 5.11624 25.5603 5.43053 26.0603 5.9341C26.5638 6.43767 26.8781 6.91981 27.1388 7.56981C27.8817 9.44838 27.7138 13.9127 27.7138 15.9948C27.7138 18.077 27.8817 22.5377 27.1353 24.4162Z" fill="white" fill-opacity="0.75"/>
</svg>
