<svg width="140" height="29" viewBox="0 0 140 29" fill="none" xmlns="http://www.w3.org/2000/svg">
<path d="M9.71875 23.3594C3.875 23.3594 0.25 20.8594 0.015625 16.4062L0 16.1094H6.09375L6.125 16.25C6.39062 17.4688 7.92188 18.2812 9.79688 18.2812C11.7812 18.2812 13 17.4688 13 16.3438V16.3281C13 15.2656 12.0938 14.8281 9.59375 14.375L7.32812 13.9688C2.84375 13.1719 0.390625 10.9062 0.390625 7.40625V7.39062C0.390625 2.85938 4.29688 0 9.64062 0C15.6719 0 18.875 2.6875 19.0625 6.90625L19.0781 7.25H12.9844L12.9688 7.09375C12.8438 5.85938 11.5312 5.07812 9.71875 5.07812C7.89062 5.07812 6.95312 5.875 6.95312 6.90625V6.92188C6.95312 7.9375 7.92188 8.42188 10.1719 8.82812L12.4375 9.23438C17.2656 10.1094 19.5625 12.0781 19.5625 15.7344V15.75C19.5625 20.4062 15.9375 23.3594 9.71875 23.3594Z" fill="white"/>
<path d="M21.75 22.9531V0.40625H28.1562V8.90625H28.2812C29.125 6.57812 30.8906 5.32812 33.5 5.32812C37.2969 5.32812 39.4219 7.73438 39.4219 11.875V22.9531H33.0156V13.2812C33.0156 11.5469 32.2031 10.4844 30.5938 10.4844C29.0781 10.4844 28.1562 11.6562 28.1562 13.2656V22.9531H21.75Z" fill="white"/>
<path d="M47.0469 23.1719C43.5625 23.1719 41.1875 20.9219 41.1875 17.9531V17.9375C41.1875 14.6094 43.75 12.7812 48.3438 12.4688L51.9688 12.2344V11.5312C51.9688 10.5312 51.3281 9.90625 50.0156 9.90625C48.7031 9.90625 47.9688 10.4844 47.8281 11.1875L47.7969 11.3438H42.0781L42.0938 11.1406C42.3594 7.625 45.3438 5.32812 50.375 5.32812C55.1719 5.32812 58.375 7.71875 58.375 11.2188V22.9531H51.9688V20.6094H51.8438C50.875 22.25 49.2656 23.1719 47.0469 23.1719ZM47.4375 17.4844C47.4375 18.3906 48.2031 18.875 49.3906 18.875C50.9219 18.875 51.9688 18.0312 51.9688 16.8906V15.7969L49.4062 15.9844C48.0469 16.0781 47.4375 16.6094 47.4375 17.4688V17.4844Z" fill="white"/>
<path d="M60.875 22.9531V0.40625H67.2812V11.9375H67.4062L71.5938 5.70312H78.6406L72.9062 13.0625L79.0469 22.9531H71.6875L68.1094 16.9062L67.2812 17.9844V22.9531H60.875Z" fill="white"/>
<path d="M87.4844 23.3281C81.8906 23.3281 78.4844 19.9375 78.4844 14.3281V14.3125C78.4844 8.70312 81.8906 5.32812 87.2812 5.32812C92.6562 5.32812 96.0938 8.70312 96.0938 13.9531V15.7656H84.7344C84.7969 17.75 85.8594 18.9219 87.6094 18.9219C89.2969 18.9219 90.125 17.9062 90.2969 17.4062L90.3125 17.3594H96.0156L95.9688 17.5625C95.4531 19.8125 93.4844 23.3281 87.4844 23.3281ZM87.4531 9.73438C86.0625 9.73438 85.0938 10.6094 84.8125 12.1406H90.0938C89.8125 10.6094 88.8438 9.73438 87.4531 9.73438Z" fill="white"/>
<path d="M108.328 23.3594C102.375 23.3594 98.4062 20.0625 98.4062 14.9219V0.40625H105.031V14.2656C105.031 16.6406 106.188 17.9531 108.344 17.9531C110.5 17.9531 111.656 16.6406 111.656 14.2656V0.40625H118.281V14.9219C118.281 20.0312 114.359 23.3594 108.328 23.3594Z" fill="white"/>
<path d="M121.047 28.4219V5.70312H127.453V8.8125H127.594C128.406 6.625 130.234 5.32812 132.672 5.32812C137.016 5.32812 139.438 8.53125 139.438 14.3125V14.3281C139.438 20.0781 137.047 23.3281 132.75 23.3281C130.25 23.3281 128.375 22.0625 127.578 19.9688H127.453V28.4219H121.047ZM130.188 18.1719C131.859 18.1719 132.938 16.7031 132.938 14.3281V14.3125C132.938 11.9062 131.844 10.4844 130.188 10.4844C128.516 10.4844 127.422 11.9062 127.422 14.3281V14.3438C127.422 16.75 128.5 18.1719 130.188 18.1719Z" fill="white"/>
</svg>
